<?xml version="1.0" standalone="no"?>
<!DOCTYPE svg PUBLIC "-//W3C//DTD SVG 20010904//EN"
 "http://www.w3.org/TR/2001/REC-SVG-20010904/DTD/svg10.dtd">
<svg version="1.0" xmlns="http://www.w3.org/2000/svg"
 width="243.000000pt" height="243.000000pt" viewBox="0 0 243.000000 243.000000"
 preserveAspectRatio="xMidYMid meet">

<g transform="translate(0.000000,243.000000) scale(0.100000,-0.100000)"
fill="#000000" stroke="none">
<path d="M594 1895 c-93 -35 -173 -142 -393 -526 -147 -257 -171 -316 -171
-419 0 -118 42 -223 126 -310 91 -95 194 -140 325 -140 94 0 188 27 250 72 74
53 213 177 231 206 43 67 7 159 -71 183 -53 16 -87 -2 -206 -105 -134 -117
-195 -135 -290 -88 -74 36 -115 102 -115 184 0 51 8 68 151 318 209 367 217
380 240 380 25 0 83 -61 241 -253 307 -374 659 -755 763 -827 109 -75 279 -96
400 -50 187 72 305 238 305 430 0 111 -26 174 -186 440 -296 496 -326 520
-668 520 -151 0 -155 -1 -185 -26 -58 -49 -59 -139 -2 -187 26 -21 42 -24 152
-30 143 -8 180 -16 238 -55 57 -38 103 -103 260 -364 127 -211 135 -226 139
-284 5 -69 -10 -108 -61 -161 -36 -39 -115 -68 -163 -60 -64 11 -103 39 -231
170 -174 178 -294 313 -500 562 -213 257 -320 367 -388 401 -65 31 -137 38
-191 19z"/>
</g>
</svg>
